<svg width="3080" height="2952" viewBox="0 0 3080 2952" fill="none" xmlns="http://www.w3.org/2000/svg">
<path fill-rule="evenodd" clip-rule="evenodd" d="M895.1 1474.9C895.1 1484 887.7 1491.3 878.7 1491.3H851.9L863.3 1517C867 1525.3 863.3 1535 855 1538.7C846.7 1542.4 837 1538.7 833.3 1530.4L815.9 1491.3H799.3L825.2 1559.4C828.5 1567.9 824.2 1577.3 815.8 1580.6C807.2 1583.8 797.8 1579.5 794.6 1571.1L764.2 1491.3H748.8L790 1606.1C792.9 1614.4 788.9 1623.5 780.8 1626.8L669.2 1673.1L683.1 1687L761 1652.1C769.3 1648.4 779 1652.1 782.7 1660.4C786.4 1668.7 782.7 1678.4 774.4 1682.1L707.9 1711.9L719.4 1723.4L757.9 1707.2C766.3 1703.7 775.9 1707.7 779.4 1716C782.9 1724.4 779 1734 770.6 1737.5L744.5 1748.4L764.1 1768C770.5 1774.4 770.5 1784.8 764.1 1791.2C757.6 1797.6 747.3 1797.6 740.8 1791.2L721.9 1772.2L711.8 1798.5C708.6 1806.9 699.2 1811.2 690.6 1808C682.1 1804.7 677.9 1795.2 681.2 1786.8L696.5 1746.8L684.7 1735.1L654.9 1801.5C652.2 1807.6 646.2 1811.2 640 1811.2C628.1 1811.2 620.1 1799 625 1788.1L659.9 1710.2L646.2 1696.6L598.8 1808.9C596.1 1815.2 590.1 1819 583.6 1819C579.1 1819 585.1 1820.4 464.2 1778.6V1791.3L543.9 1821.7C552.4 1824.9 556.7 1834.4 553.4 1842.9C550.2 1851.3 540.8 1855.6 532.3 1852.4L464.2 1826.4V1842.7L502.8 1858.5C511.2 1861.9 515.2 1871.5 511.8 1879.9C508.3 1888.3 498.7 1892.3 490.4 1888.9L464.2 1878.2V1905.8C464.2 1914.9 456.8 1922.2 447.8 1922.2C438.7 1922.2 431.4 1914.9 431.4 1905.8V1879L405.6 1890.4C397.4 1894.1 387.6 1890.4 384 1882.1C380.3 1873.8 384 1864.1 392.3 1860.5L431.4 1843V1826.4L363.3 1852.4C354.7 1855.6 345.3 1851.3 342.1 1842.9C338.9 1834.4 343.1 1824.9 351.6 1821.7L431.4 1791.3V1778.2L319.7 1818C311.6 1820.9 302.6 1817 299.1 1809.2L249.5 1696.4L235.7 1710.2L270.6 1788.1C274.3 1796.4 270.6 1806.1 262.3 1809.8C254 1813.5 244.3 1809.8 240.6 1801.5L210.8 1735.1L199.3 1746.6L215.4 1785.1C218.9 1793.4 215 1803 206.6 1806.5C198.2 1810.1 188.7 1806.1 185.2 1797.7L174.2 1771.7L154.7 1791.2C148.3 1797.6 137.9 1797.6 131.5 1791.2C125.1 1784.8 125.1 1774.4 131.5 1768L150.4 1749L124.1 1738.9C115.7 1735.7 111.4 1726.2 114.7 1717.7C117.9 1709.3 127.4 1705 135.9 1708.3L175.8 1723.6L187.6 1711.9L121.1 1682.1C112.8 1678.4 109.1 1668.7 112.9 1660.4C116.6 1652.1 126.3 1648.4 134.6 1652.1L212.4 1687L227 1672.5L117 1626.8C108.9 1623.5 104.9 1614.4 107.8 1606.2L148.8 1491.3H131.4L101 1571.1C97.8 1579.5 88.3 1583.8 79.8 1580.6C71.3 1577.3 67.1 1567.9 70.3 1559.4L96.2 1491.3H80L64.2 1529.9C60.7 1538.3 51.1 1542.3 42.8 1538.9C34.4 1535.5 30.3 1525.9 33.8 1517.5L44.5 1491.3H16.9C7.8 1491.3 0.5 1484 0.5 1474.9C0.5 1465.8 7.8 1458.5 16.9 1458.5H43.7L32.2 1432.7C28.5 1424.5 32.2 1414.8 40.5 1411.1C48.8 1407.4 58.5 1411.1 62.2 1419.4L79.6 1458.5H96.2L70.3 1390.4C67.1 1381.9 71.3 1372.5 79.8 1369.2C88.3 1366 97.7 1370.2 101 1378.7L131.4 1458.5H149.7L107.9 1348C104.8 1339.8 108.8 1330.5 116.9 1327.1L229.3 1279.6L212.4 1262.8L134.6 1297.7C126.3 1301.4 116.6 1297.7 112.9 1289.4C109.1 1281.1 112.8 1271.4 121.1 1267.7L187.6 1237.9L176.1 1226.4L137.6 1242.6C129.2 1246.1 119.6 1242.1 116.1 1233.8C112.6 1225.4 116.6 1215.8 124.9 1212.3L151 1201.4L131.5 1181.8C125.1 1175.4 125.1 1165 131.5 1158.6C137.9 1152.2 148.3 1152.2 154.7 1158.6L173.6 1177.5L183.7 1151.3C187 1142.8 196.5 1138.6 204.9 1141.8C213.4 1145.1 217.6 1154.5 214.4 1163L199.1 1203L210.8 1214.7L240.6 1148.2C244.3 1140 254 1136.3 262.3 1140C270.6 1143.7 274.3 1153.4 270.6 1161.7L235.7 1239.6L252.7 1256.6L299 1145C302.4 1137 311.5 1132.9 319.7 1135.9L431.4 1175.7V1158.5L351.6 1128.1C343.1 1124.9 338.9 1115.4 342.1 1106.9C345.3 1098.4 354.8 1094.2 363.3 1097.4L431.4 1123.4V1107.1L392.7 1091.3C384.3 1087.9 380.3 1078.3 383.8 1069.9C387.2 1061.5 396.8 1057.5 405.2 1060.9L431.4 1071.6V1044C431.4 1034.9 438.7 1027.6 447.8 1027.6C456.8 1027.6 464.2 1034.9 464.2 1044V1070.8L489.9 1059.3C498.2 1055.6 507.9 1059.4 511.6 1067.6C515.3 1075.9 511.6 1085.6 503.3 1089.3L464.2 1106.7V1123.4L532.3 1097.4C540.7 1094.2 550.2 1098.4 553.4 1106.9C556.7 1115.4 552.4 1124.9 543.9 1128.1L464.2 1158.5V1175.2L578.3 1135.8C586.5 1133 595.6 1137.1 598.9 1145.2L643.6 1255.9L659.9 1239.6L625 1161.7C621.3 1153.4 625 1143.7 633.3 1140C641.5 1136.3 651.2 1140 654.9 1148.2L684.7 1214.7L696.2 1203.2L680.1 1164.7C676.6 1156.4 680.5 1146.7 688.9 1143.2C697.3 1139.7 706.9 1143.7 710.4 1152L721.3 1178.1L740.8 1158.6C747.3 1152.2 757.7 1152.2 764.1 1158.6C770.5 1165 770.5 1175.4 764.1 1181.8L745.1 1200.8L771.4 1210.9C779.9 1214.1 784.1 1223.6 780.9 1232.1C777.6 1240.4 768.2 1244.8 759.6 1241.5L719.7 1226.2L707.9 1237.9L774.4 1267.7C782.7 1271.4 786.4 1281.1 782.7 1289.4C779 1297.7 769.3 1301.4 761 1297.7L683.1 1262.8L667.5 1278.4L781 1327.1C789.1 1330.6 793 1339.8 789.9 1348L747.9 1458.5H764.2L794.6 1378.7C797.8 1370.2 807.3 1366 815.8 1369.2C824.2 1372.5 828.5 1381.9 825.2 1390.4L799.3 1458.5H815.6L831.4 1419.9C834.8 1411.5 844.4 1407.4 852.8 1410.9C861.2 1414.3 865.2 1423.9 861.8 1432.3L851 1458.5H878.7C887.7 1458.5 895.1 1465.8 895.1 1474.9ZM642.5 1303.4L622.3 1323.6L704.5 1358.8C712.5 1362.3 716.4 1371.5 713.3 1379.7L683.4 1458.5H712.8L753.6 1351.1L642.5 1303.4ZM648.7 1491.3H617.8L636.1 1542.5C639.1 1550.7 635 1559.8 627 1563.2L579.1 1583L599.2 1603.2L677.2 1570.8L648.7 1491.3ZM249.4 1458.5H279.5L261.8 1411.7C258.6 1403.4 262.6 1394.2 270.7 1390.8L319.7 1370.1L299.3 1349.7L220.8 1382.9L249.4 1458.5ZM677 1382.8L597.3 1348.5L576.7 1369.1L627.1 1390.8C635.2 1394.3 639.1 1403.5 636 1411.7L618.3 1458.5H648.3L677 1382.8ZM582.9 1491.3H487.4L553.9 1557.9L599.9 1538.8L582.9 1491.3ZM314.5 1458.5H408.1L344.8 1395.2L298.1 1414.9L314.5 1458.5ZM599.6 1414.8L551.6 1394.1L487.3 1458.5H583L599.6 1414.8ZM528.6 1370.7L510.5 1325.8L464.1 1341.8V1435.3L528.6 1370.7ZM431.2 1341.7L386.8 1325.9L367.8 1371.9L431.2 1435.3V1341.7ZM297.7 1538.8L342 1557.2L408 1491.3H314.6L297.7 1538.8ZM365.5 1580.2L386.6 1628.1L431.2 1612.1V1514.5L365.5 1580.2ZM464.1 1612L510.8 1628.1L530.7 1581L464.1 1514.4V1612ZM573.7 1325.6L542.5 1248.5L464.1 1275.5V1307L514.6 1289.6C522.8 1286.8 531.9 1290.9 535.1 1299L553.9 1345.4L573.7 1325.6ZM431.3 1275.8L355 1248.6L322.6 1326.6L342.7 1346.7L362.6 1298.9C365.9 1290.8 375 1286.7 383.3 1289.7L431.3 1306.8V1275.8ZM220.5 1570.8L296.9 1602.5L317 1582.4L270.8 1563.2C262.7 1559.8 258.7 1550.8 261.6 1542.5L279.9 1491.3H248.9L220.5 1570.8ZM319.7 1626.1L354.6 1705.4L431.3 1678.1V1647L383.3 1664.2C375.2 1667.1 366.2 1663.2 362.7 1655.3L340.6 1605.2L319.7 1626.1ZM464.1 1678.3L542.8 1705.4L576.1 1626.5L555.7 1606.1L535.1 1655.1C531.7 1663 522.8 1667 514.6 1664.2L464.1 1646.8V1678.3ZM464.1 1209.9V1240.8L546.6 1212.3C554.8 1209.5 563.9 1213.6 567.1 1221.7L599 1300.4L618.3 1281L574.2 1171.9L464.1 1209.9ZM277.8 1281.7L297.5 1301.4L330.6 1221.5C333.9 1213.4 343 1209.4 351.3 1212.3L431.3 1240.9V1210.5L323.3 1172L277.8 1281.7ZM184.7 1458.4H214.2L184.4 1379.6C181.3 1371.4 185.2 1362.1 193.4 1358.7L274.2 1324.5L254.3 1304.6L144.2 1351.1L184.7 1458.4ZM252 1647.3L271.7 1627.6L193.4 1595.1C185.3 1591.8 181.3 1582.7 184.2 1574.4L213.9 1491.2H183.5L143.9 1602.4L252 1647.3ZM431.2 1743.3V1712.9L351.2 1741.5C343.1 1744.3 334.1 1740.5 330.7 1732.6L294.7 1651L274.2 1671.5L322.9 1782L431.2 1743.3ZM621 1671.4L601.1 1651.5L566.9 1732.3C563.6 1740.2 554.7 1744.3 546.4 1741.5L464 1713V1743.8L574.3 1782L621 1671.4ZM713.8 1491.2H683.5L713.3 1574.3C716.2 1582.6 712.2 1591.7 704.1 1595L624.2 1628.2L644 1647.8L753.6 1602.4L713.8 1491.2Z" fill="#0199EE"/>
<path fill-rule="evenodd" clip-rule="evenodd" d="M815.1 2728.5C810.2 2737 799.3 2739.9 790.9 2735L709.8 2688.2L720.7 2745.7C722.5 2755.3 716.2 2764.6 706.6 2766.4C696.7 2768.2 687.7 2761.7 685.9 2752.3L669.4 2664.9L637.4 2646.4L653.5 2753.3C655 2763 648.3 2772 638.6 2773.4C629.1 2774.9 620 2768.3 618.5 2758.5L598.3 2623.8L570.6 2607.8L579.6 2705C580.8 2718.4 564.8 2735.4 549.6 2725.1L465.5 2667.8V2700.5L572 2785.4C579.7 2791.5 580.9 2802.6 574.8 2810.3C568.7 2817.9 557.6 2819.2 550 2813.1L465.5 2745.7V2782.6L532.9 2840.7C540.3 2847 541.2 2858.2 534.8 2865.6C528.4 2873 517.2 2873.9 509.8 2867.5L465.5 2829.3V2922.9C465.5 2932.7 457.5 2940.6 447.8 2940.6C438 2940.6 430.1 2932.7 430.1 2922.9V2829.3L385.7 2867.5C378.3 2873.9 367.1 2873 360.7 2865.6C354.4 2858.2 355.2 2847 362.6 2840.7L430.1 2782.6V2745.7L345.6 2813.1C337.9 2819.1 326.8 2817.9 320.7 2810.3C314.6 2802.6 315.9 2791.5 323.5 2785.4L430.1 2700.5V2668.6L350.4 2724.9C335.7 2736 315.9 2734.5 318.1 2709L325.6 2607.5L297.3 2623.8L277 2758.5C275.7 2767.3 268.2 2773.6 259.5 2773.6C248.7 2773.6 240.4 2764 242 2753.3L258.1 2646.4L226.1 2664.9L209.6 2752.3C208 2760.8 200.6 2766.7 192.2 2766.7C181.1 2766.7 172.8 2756.6 174.8 2745.7L185.7 2688.2L104.6 2735C96.1999 2739.9 85.2999 2737 80.4999 2728.5C75.5999 2720.1 78.4999 2709.3 86.8999 2704.4L168 2657.6L112.8 2638.2C103.5 2635 98.6999 2624.9 101.9 2615.7C105.1 2606.5 115.2 2601.6 124.4 2604.8L208.4 2634.2L240.4 2615.8L139.8 2576.3C130.7 2572.7 126.2 2562.4 129.8 2553.3C133.4 2544.2 143.7 2539.7 152.8 2543.3L279.6 2593.1L307.2 2577.2L218.6 2536.4C201.5 2530.1 199.7 2508.4 216.2 2500.4L307.9 2456.1L279.6 2439.8L152.8 2489.6C143.7 2493.2 133.4 2488.7 129.8 2479.6C126.2 2470.5 130.7 2460.3 139.8 2456.7L240.4 2417.2L208.4 2398.7L124.4 2428.1C102.1 2435.9 90.8999 2402.4 112.8 2394.7L168 2375.4L86.8999 2328.6C78.4999 2323.7 75.5999 2312.9 80.4999 2304.4C85.2999 2296 96.1999 2293 104.6 2297.9L185.7 2344.7L174.8 2287.2C173 2277.6 179.3 2268.4 188.9 2266.5C198.5 2264.8 207.8 2271 209.6 2280.6L226.1 2368.1L258.1 2386.5L242 2279.7C240.6 2270 247.2 2261 256.9 2259.5C266.5 2258.1 275.6 2264.7 277 2274.4L297.3 2409.2L324.9 2425.1L316 2328C312.8 2309.1 330.7 2297.5 345.9 2307.9L430.1 2365.1V2332.5L323.5 2247.6C315.9 2241.5 314.6 2230.4 320.7 2222.7C326.8 2215.1 337.9 2213.8 345.6 2219.9L430.1 2287.2V2250.4L362.6 2192.3C355.2 2185.9 354.4 2174.8 360.7 2167.3C367.1 2159.9 378.3 2159.1 385.7 2165.5L430.1 2203.6V2110.1C430.1 2100.3 438 2092.4 447.8 2092.4C457.5 2092.4 465.5 2100.3 465.5 2110.1V2203.6L509.8 2165.5C517.2 2159.1 528.4 2159.9 534.8 2167.3C541.2 2174.8 540.3 2185.9 532.9 2192.3L465.5 2250.4V2287.2L550 2219.9C557.6 2213.8 568.7 2215.1 574.8 2222.7C580.9 2230.4 579.7 2241.5 572 2247.6L465.5 2332.5V2364.4L545.1 2308.1C561.8 2295.9 578.8 2305.6 577.5 2324L570 2425.5L598.3 2409.2L618.5 2274.4C620 2264.7 629 2258.1 638.6 2259.5C648.3 2261 655 2270 653.5 2279.7L637.4 2386.5L669.4 2368.1L685.9 2280.6C687.8 2271 697 2264.8 706.6 2266.5C716.2 2268.4 722.5 2277.6 720.7 2287.2L709.8 2344.7L790.9 2297.9C799.4 2293 810.2 2296 815.1 2304.4C819.9 2312.9 817.1 2323.7 808.6 2328.6L727.5 2375.4L782.8 2394.7C792 2398 796.9 2408 793.6 2417.3C790.4 2426.5 780.4 2431.4 771.1 2428.1L687.1 2398.7L655.1 2417.2L755.7 2456.7C764.8 2460.3 769.3 2470.5 765.7 2479.6C762.2 2488.8 751.9 2493.2 742.8 2489.6L615.9 2439.8L588.3 2455.8L676.9 2496.6C695.1 2503 695.9 2524.6 679.4 2532.6L587.7 2576.8L615.9 2593.1L742.8 2543.3C751.9 2539.7 762.1 2544.2 765.7 2553.3C769.3 2562.4 764.8 2572.7 755.7 2576.3L655.1 2615.8L687.1 2634.2L771.1 2604.8C780.3 2601.6 790.4 2606.5 793.6 2615.7C796.9 2624.9 792 2635 782.8 2638.2L727.5 2657.6L808.6 2704.4C817.1 2709.3 819.9 2720.1 815.1 2728.5ZM550.8 2477.4L483.2 2516.5L550.6 2555.4L633.3 2515.5L550.8 2477.4ZM533 2446.8L539.7 2355.2L465.5 2407.7V2485.8L533 2446.8ZM430.2 2407.8L354.2 2356.1L362.6 2446.7L430.2 2485.7V2407.8ZM345.1 2477.4L262.3 2517.3L344.9 2555.4L412.5 2516.3L345.1 2477.4ZM362.8 2586L356 2677.6L430.3 2625.1V2547L362.8 2586ZM533.2 2586.1L465.6 2547.1V2624.9L541.5 2676.6L533.2 2586.1Z" fill="#0199EE"/>
<path fill-rule="evenodd" clip-rule="evenodd" d="M3010.2 2516.5C3010.2 2525.1 3003.2 2532.1 2994.6 2532.1H2888.4L2933.4 2584.4C2939 2590.9 2938.3 2600.7 2931.7 2606.4C2925.2 2612 2915.4 2611.3 2909.7 2604.7L2847.2 2532.1H2800.1C2800.1 2532.1 2851.8 2596.9 2870.4 2620.3C2878.4 2630.4 2871.6 2649.4 2857.7 2651C2829.9 2654.3 2745.6 2663.7 2745.6 2663.7L2778.9 2697L2874.5 2689.9C2883.1 2689.2 2890.6 2695.7 2891.2 2704.2C2891.8 2712.9 2885.4 2720.3 2876.8 2721L2808.1 2726.1L2883.1 2801.2C2889.2 2807.3 2889.2 2817.2 2883.1 2823.3C2877 2829.4 2867.1 2829.4 2861 2823.3L2786 2748.2L2780.8 2817C2779.2 2837.8 2748.1 2835.2 2749.7 2814.6L2756.8 2719.1L2723.5 2685.8C2723.5 2685.8 2714.3 2768.7 2710.8 2797.8C2708.8 2815.4 2689.7 2818.2 2680.1 2810.6C2659.5 2794.2 2591.9 2740.3 2591.9 2740.3V2787.4L2664.5 2849.9C2671.1 2855.5 2671.8 2865.4 2666.2 2871.9C2660.6 2878.4 2650.7 2879.2 2644.2 2873.6L2591.9 2828.6V2934.7C2591.9 2943.4 2584.9 2950.4 2576.3 2950.4C2567.7 2950.4 2560.7 2943.4 2560.7 2934.7V2828.6L2508.4 2873.6C2501.9 2879.2 2492 2878.4 2486.4 2871.9C2480.8 2865.4 2481.5 2855.5 2488.1 2849.9L2560.7 2787.4V2740.3C2560.7 2740.3 2496.9 2791.3 2472.5 2810.5C2457.8 2822.1 2443.4 2813.7 2441.8 2797.8C2438.4 2765.5 2429.1 2685.8 2429.1 2685.8L2395.8 2719.1L2402.9 2814.6C2403.6 2823.2 2397.1 2830.7 2388.5 2831.4C2380.1 2832 2372.4 2825.6 2371.8 2817L2366.6 2748.2L2291.6 2823.3C2285.5 2829.3 2275.6 2829.4 2269.5 2823.3C2263.4 2817.2 2263.4 2807.3 2269.5 2801.2L2344.5 2726.1L2275.8 2721C2267.2 2720.3 2260.8 2712.9 2261.4 2704.2C2262 2695.7 2269.6 2689.2 2278.1 2689.9L2373.7 2697L2407 2663.7C2407 2663.7 2327.6 2656 2294.9 2651C2278.2 2648.5 2271.8 2633.4 2284.1 2617.9L2352.5 2532.1H2305.4L2242.9 2604.7C2237.3 2611.2 2227.4 2612 2220.9 2606.4C2214.3 2600.7 2213.6 2590.9 2219.2 2584.4L2264.2 2532.1H2158C2149.4 2532.1 2142.4 2525.1 2142.4 2516.5C2142.4 2507.9 2149.4 2500.9 2158 2500.9H2264.2L2219.2 2448.6C2213.6 2442.1 2214.3 2432.2 2220.9 2426.6C2227.4 2421 2237.2 2421.7 2242.9 2428.2L2305.4 2500.9H2352.5C2352.5 2500.9 2299.9 2435 2282.2 2412.7C2274.1 2402.4 2274.9 2385 2294.9 2381.9C2322.8 2377.6 2407 2369.3 2407 2369.3L2373.7 2335.9L2278.1 2343.1C2269.8 2343.8 2262.1 2337.5 2261.4 2328.7C2260.8 2320.1 2267.2 2312.6 2275.8 2312L2344.6 2306.8L2269.5 2231.7C2263.4 2225.7 2263.4 2215.8 2269.5 2209.7C2275.6 2203.6 2285.5 2203.6 2291.6 2209.7L2366.6 2284.7L2371.8 2216C2372.4 2207.4 2380 2200.9 2388.5 2201.6C2397.1 2202.2 2403.6 2209.7 2402.9 2218.3L2395.8 2313.9L2429.1 2347.2C2429.1 2347.2 2435.5 2290.6 2441.8 2235.1C2443.7 2217.8 2460.4 2213.3 2472.5 2222.4C2500.6 2243.4 2560.7 2292.7 2560.7 2292.7V2245.5L2488.1 2183C2481.5 2177.4 2480.8 2167.6 2486.4 2161C2492 2154.5 2501.9 2153.7 2508.4 2159.4L2560.7 2204.4V2098.2C2560.7 2089.6 2567.7 2082.6 2576.3 2082.6C2584.9 2082.6 2591.9 2089.6 2591.9 2098.2V2204.4L2644.2 2159.4C2650.7 2153.7 2660.6 2154.5 2666.2 2161C2671.8 2167.6 2671.1 2177.4 2664.5 2183L2591.9 2245.5V2292.7C2591.9 2292.7 2658.1 2240 2680.1 2222.4C2690.6 2214 2708.8 2215.8 2710.8 2235.1C2714.2 2267.1 2723.5 2347.2 2723.5 2347.2L2756.8 2313.9L2749.7 2218.3C2749 2209.7 2755.5 2202.2 2764.1 2201.6C2772.7 2200.9 2780.2 2207.4 2780.8 2216L2786 2284.7L2861 2209.7C2867.1 2203.6 2877 2203.6 2883.1 2209.7C2889.2 2215.8 2889.2 2225.7 2883.1 2231.7L2808 2306.8L2876.8 2312C2885.4 2312.6 2891.8 2320.1 2891.2 2328.7C2890.6 2336.9 2883.7 2343.1 2875.7 2343.1C2874.8 2343.1 2779.8 2336 2778.9 2335.9L2745.6 2369.3C2745.6 2369.3 2829.6 2378.7 2857.6 2381.9C2877 2384.1 2876.6 2405 2870.3 2412.7C2852.5 2434.5 2800.1 2500.9 2800.1 2500.9H2847.2L2909.7 2428.2C2915.3 2421.7 2925.2 2421 2931.7 2426.6C2938.3 2432.2 2939 2442.1 2933.4 2448.6L2888.4 2500.9H2994.6C3003.2 2500.9 3010.2 2507.9 3010.2 2516.5ZM2786 2627.7L2832.2 2622.5L2801.4 2583.8C2800.8 2584 2800.2 2584.3 2799.5 2584.4L2760.9 2591.7C2760.9 2591.7 2783 2622.8 2786 2627.7ZM2779.6 2556.4L2760.2 2532.1H2718.7L2741.1 2563.7L2779.6 2556.4ZM2392.6 2593.8C2392.6 2593.8 2352.1 2586.3 2350.3 2585L2320.4 2622.5L2369.6 2628C2370.7 2625.8 2391.2 2595.9 2392.6 2593.8ZM2411.9 2565.4L2434.6 2532.1H2392.5L2371.4 2558.5L2411.9 2565.4ZM2680.4 2500.8L2707 2461.7L2661.1 2453.8L2614.1 2500.8H2680.4ZM2630 2385.4L2592 2412.3V2478.8L2638.9 2431.9L2630 2385.4ZM2560.7 2412.5L2521.6 2385.8L2513.7 2431.8L2560.7 2478.8V2412.5ZM2491.7 2454L2445.2 2462.8L2472.1 2500.9H2538.6L2491.7 2454ZM2445.7 2571.2L2491.6 2579.1L2538.6 2532.1H2472.3L2445.7 2571.2ZM2513.8 2601L2522.7 2647.5L2560.7 2620.6V2554.1L2513.8 2601ZM2591.9 2620.4L2631.1 2647L2638.9 2601.1L2591.9 2554.1V2620.4ZM2660.9 2578.9L2707.4 2570.1L2680.5 2532H2614L2660.9 2578.9ZM2760.2 2500.8L2781.2 2474.4L2740.7 2467.4L2718.1 2500.8H2760.2ZM2782.1 2406.6L2760 2439.1C2760 2439.1 2800.5 2446.6 2802.3 2447.9L2832.2 2410.4L2783.1 2404.8C2782.8 2405.4 2782.5 2406 2782.1 2406.6ZM2717.3 2397.4L2688 2426.7L2726.2 2433.3L2748.2 2400.9L2717.3 2397.4ZM2695.3 2375.3L2691.5 2341.8L2657.9 2365.5L2665.5 2405.1L2695.3 2375.3ZM2651.6 2331.7C2651.6 2331.7 2685.5 2308.5 2687.7 2308.1L2682.3 2260.4L2643.7 2291.2C2644.4 2293.6 2651.1 2329.3 2651.6 2331.7ZM2591.9 2332.5V2373.9L2623.6 2351.6L2616.2 2313.1L2591.9 2332.5ZM2560.7 2332.5L2534.3 2311.5L2527.4 2351.9L2560.7 2374.6V2332.5ZM2464.8 2309.6C2465.4 2309.9 2499 2332.6 2499 2332.6C2499 2332.6 2506.5 2292.2 2507.8 2290.3L2470.3 2260.5L2464.8 2309.6ZM2457.4 2375.3L2486.7 2404.6L2493.3 2366.4L2460.9 2344.4L2457.4 2375.3ZM2435.3 2397.4L2401.8 2401.2L2425.5 2434.7L2465.1 2427.2L2435.3 2397.4ZM2391.8 2441.1C2391.8 2441.1 2368.5 2407.2 2368.1 2404.9L2320.4 2410.3L2351.3 2449C2351.9 2448.8 2391.8 2441.1 2391.8 2441.1ZM2392.5 2500.7H2433.9L2411.6 2469.1L2373.1 2476.4L2392.5 2500.7ZM2435.3 2635.3L2464.6 2606L2426.4 2599.4L2404.4 2631.8L2435.3 2635.3ZM2457.4 2657.4L2461.2 2690.9L2494.7 2667.2L2487.2 2627.6L2457.4 2657.4ZM2501.1 2701C2501.1 2701 2467.2 2724.3 2465 2724.7L2470.4 2772.3L2509 2741.5C2508.3 2739.4 2501.6 2703.4 2501.1 2701ZM2560.7 2700.2V2658.8L2529.1 2681.2L2536.4 2719.6L2560.7 2700.2ZM2592 2700.2L2618.4 2721.3L2625.3 2680.8L2592 2658.1V2700.2ZM2687.9 2723.2C2686.2 2722.3 2655.2 2701.1 2653.7 2700.1C2653.7 2700.1 2646.1 2740.5 2644.9 2742.4L2682.3 2772.2L2687.9 2723.2ZM2695.4 2657.4L2666.1 2628.1L2659.5 2666.3L2691.9 2688.3L2695.4 2657.4ZM2717.5 2635.4L2751 2631.6L2727.3 2598.1L2687.7 2605.6L2717.5 2635.4Z" fill="#0199EE"/>
<path fill-rule="evenodd" clip-rule="evenodd" d="M855.6 409.9C855.6 418.5 848.6 425.5 840 425.5H757.8L798.8 477.5C804.2 484.2 803 494.1 796.2 499.4C789.5 504.7 779.7 503.6 774.3 496.8L718 425.5H526.2L626.2 466.9L679.6 437C687.1 432.8 696.6 435.5 700.9 443C705.1 450.5 702.4 460 694.8 464.2L662.9 482.1L707 500.4C715 503.7 718.7 512.8 715.4 520.8C712.2 528.7 703.1 532.5 695 529.2L651 511L660.9 546.2C663.2 554.5 658.4 563.1 650.1 565.5C641.9 567.8 633.2 563 630.8 554.7L614.2 495.7L514.3 454.3L649.9 589.9L740.2 579.3C748.7 578.2 756.5 584.4 757.5 592.9C758.5 601.5 752.4 609.3 743.8 610.3L678 618L736.1 676.1C742.2 682.2 742.2 692.1 736.1 698.2C730 704.3 720.1 704.3 714 698.2L656 640.1L648.2 705.9C647.2 713.9 640.5 719.7 632.7 719.7C632.1 719.7 631.467 719.666 630.8 719.6C622.3 718.6 616.2 710.8 617.2 702.2L627.8 612L492.2 476.4L533.6 576.3L592.5 593C600.8 595.3 605.6 603.9 603.3 612.2C601.4 619.1 595.1 623.6 588.3 623.6C584.9 623.6 584.8 623.2 548.8 613.1L567.1 657.2C570.4 665.1 566.6 674.3 558.6 677.6C550.7 680.9 541.5 677.1 538.2 669.1L520 625L502.1 657C497.9 664.5 488.4 667.2 480.8 663C473.3 658.7 470.6 649.2 474.8 641.7L504.7 588.3L463.4 488.4V680.1L534.7 736.4C541.5 741.7 542.6 751.6 537.3 758.3C532 765.1 522.2 766.3 515.4 760.9L463.4 719.9V802C463.4 810.7 456.4 817.6 447.8 817.6C439.1 817.6 432.2 810.7 432.2 802V719.9L380.1 760.9C373.4 766.2 363.6 765.1 358.2 758.3C352.9 751.5 354 741.7 360.8 736.4L432.2 680.1V488.3L390.7 588.3L420.7 641.7C424.9 649.2 422.2 658.7 414.7 662.9C407.1 667.1 397.6 664.5 393.4 656.9L375.5 625L357.3 669.1C353.9 677 344.8 680.8 336.9 677.5C328.9 674.2 325.1 665.1 328.4 657.1L346.7 613C310.6 623.2 310.6 623.6 307.2 623.6C300.4 623.6 294.1 619.1 292.2 612.2C289.8 603.9 294.7 595.3 303 592.9L361.9 576.3L403.3 476.4L267.7 612L278.4 702.2C279.4 710.8 273.2 718.6 264.7 719.6C264.1 719.666 263.467 719.7 262.8 719.7C255 719.7 248.3 713.9 247.4 705.9L239.6 640.1L181.5 698.2C175.4 704.3 165.6 704.3 159.4 698.2C153.3 692.1 153.3 682.2 159.4 676.1L217.5 618L151.7 610.3C143.2 609.3 137 601.5 138.1 592.9C139.1 584.4 146.9 578.2 155.4 579.3L245.6 589.9L381.3 454.3L281.3 495.7L264.7 554.6C262.7 561.5 256.5 566 249.6 566C248.2 566 246.8 565.8 245.4 565.4C237.1 563.1 232.3 554.4 234.6 546.1L244.6 510.9L200.5 529.2C192.5 532.4 183.4 528.7 180.1 520.7C176.8 512.7 180.6 503.6 188.5 500.3L232.6 482L200.7 464.2C193.1 460 190.5 450.4 194.7 442.9C198.9 435.4 208.4 432.7 215.9 436.9L269.4 466.8L369.3 425.5H177.5L121.2 496.8C115.9 503.6 106.1 504.7 99.3 499.4C92.5 494.1 91.4 484.2 96.7 477.5L137.7 425.5H55.6C47 425.5 40 418.5 40 409.9C40 401.2 47 394.2 55.6 394.2H137.7L96.7 342.2C91.4 335.5 92.5 325.7 99.3 320.3C106.1 315 115.9 316.1 121.2 322.9L177.5 394.2H369.3L269.4 352.8L215.9 382.7C208.4 386.9 198.9 384.2 194.7 376.7C190.5 369.2 193.2 359.7 200.7 355.5L232.6 337.6L188.5 319.3C180.6 316 176.8 306.9 180.1 298.9C183.4 291 192.5 287.2 200.5 290.5L244.6 308.8L234.7 273.5C232.3 265.2 237.1 256.6 245.4 254.3C253.7 251.9 262.4 256.8 264.7 265.1L281.3 324L381.2 365.4L245.6 229.8L155.4 240.5C154.8 240.566 154.167 240.6 153.5 240.6C145.7 240.6 139 234.7 138.1 226.8C137 218.2 143.2 210.5 151.7 209.4L217.5 201.7L159.4 143.6C153.3 137.5 153.3 127.6 159.4 121.5C165.5 115.4 175.4 115.4 181.5 121.5L239.6 179.6L247.4 113.8C248.4 105.2 256.2 99.0996 264.7 100.1C273.3 101.2 279.4 108.9 278.4 117.5L267.7 207.7L403.3 343.3L361.9 243.4L303 226.7C294.7 224.4 289.9 215.8 292.2 207.5C294.6 199.2 303.2 194.4 311.5 196.7L346.7 206.7L328.5 162.6C325.2 154.6 329 145.5 336.9 142.2C344.9 138.9 354 142.6 357.3 150.6L375.6 194.7L393.5 162.8C397.7 155.2 407.2 152.6 414.7 156.8C422.2 161 424.9 170.5 420.7 178L390.8 231.4L432.2 331.4V139.6L360.8 83.2996C354 77.9996 352.9 68.1996 358.2 61.3996C363.6 54.5996 373.4 53.4996 380.1 58.7996L432.2 99.7996V17.6996C432.2 9.09961 439.1 2.09961 447.8 2.09961C456.4 2.09961 463.4 9.09961 463.4 17.6996V99.7996L515.4 58.7996C522.2 53.4996 532 54.5996 537.3 61.3996C542.6 68.1996 541.5 77.9996 534.7 83.2996L463.4 139.6V331.4L504.8 231.5L474.9 178C470.7 170.5 473.4 161 480.9 156.8C488.4 152.6 497.9 155.3 502.1 162.8L520 194.7L538.3 150.6C541.6 142.7 550.7 138.9 558.7 142.2C566.6 145.5 570.4 154.6 567.1 162.6L548.9 206.7L584.1 196.7C592.4 194.4 601 199.2 603.4 207.5C605.7 215.8 600.9 224.4 592.6 226.8L533.6 243.4L492.2 343.3L627.8 207.7L617.2 117.5C616.2 108.9 622.3 101.2 630.8 100.1C639.4 99.0996 647.2 105.2 648.2 113.8L656 179.6L714 121.5C720.1 115.4 730 115.4 736.1 121.5C742.2 127.6 742.2 137.5 736.1 143.6L678 201.7L743.8 209.4C752.4 210.5 758.5 218.2 757.5 226.8C756.6 234.7 749.8 240.6 742 240.6C740.6 240.6 651.4 230 649.9 229.8L514.3 365.4L614.2 324L630.9 265.1C633.2 256.8 641.9 252 650.2 254.3C658.4 256.7 663.3 265.3 660.9 273.6L651 308.8L695.1 290.6C703 287.3 712.2 291 715.5 299C718.8 307 715 316.1 707 319.4L662.9 337.7L694.9 355.6C702.4 359.8 705.1 369.3 700.9 376.8C696.6 384.4 687.1 387 679.6 382.8L626.2 352.9L526.3 394.2H718L774.3 322.9C779.6 316.1 789.5 315 796.2 320.3C803 325.7 804.2 335.5 798.8 342.2L757.8 394.2H840C848.6 394.2 855.6 401.2 855.6 409.9ZM506.7 409.9L475 398.6L489.4 368.2L459 382.6L447.8 350.9L436.5 382.6L406.1 368.2L420.5 398.6L388.8 409.9L420.5 421.1L406.1 451.5L436.5 437.1L447.8 468.8L459 437.1L489.4 451.5L475 421.1L506.7 409.9Z" fill="#0199EE"/>
<path fill-rule="evenodd" clip-rule="evenodd" d="M1978.2 1475.6C1978.2 1484.2 1971.2 1491.2 1962.6 1491.2H1895.7L1927.1 1544.5C1931.4 1552 1929 1561.5 1921.5 1565.9C1914.1 1570.3 1904.6 1567.8 1900.2 1560.4L1859.5 1491.2H1824.9L1856.4 1544.5C1860.8 1551.9 1858.3 1561.5 1850.9 1565.9C1843.5 1570.3 1833.9 1567.9 1829.5 1560.4L1794.6 1501.3L1751.3 1553H1715.1L1740.3 1578.2L1734.4 1644.6L1801.8 1627.2C1810.2 1625.1 1818.7 1630.1 1820.8 1638.5C1823 1646.8 1818 1655.3 1809.6 1657.5L1748 1673.3L1772.5 1697.8L1851.8 1677.2C1860.1 1675 1868.6 1680.1 1870.8 1688.4C1873 1696.8 1867.9 1705.3 1859.6 1707.4L1798.1 1723.4L1846 1771.2C1852.1 1777.4 1852.1 1787.2 1846 1793.3C1839.9 1799.4 1830 1799.4 1823.9 1793.3L1776.6 1746L1761.1 1805.9C1755.9 1826 1725.7 1818.2 1730.9 1798.1L1751 1720.4L1726.5 1696L1711.1 1755.9C1706 1776 1675.7 1768.3 1680.9 1748.2L1698 1681.7L1630.8 1687.6L1605.2 1662.1V1697.6L1554.2 1740.4L1614.1 1775.9C1621.5 1780.3 1623.9 1789.8 1619.6 1797.2C1615.1 1804.7 1605.6 1807.1 1598.2 1802.7L1543.4 1770.4V1805L1614 1846.5C1621.5 1850.9 1623.9 1860.4 1619.6 1867.9C1615.2 1875.3 1605.6 1877.8 1598.2 1873.4L1543.4 1841.2V1908.9C1543.4 1917.5 1536.5 1924.5 1527.8 1924.5C1519.2 1924.5 1512.2 1917.5 1512.2 1908.9V1842L1458.9 1873.4C1451.5 1877.8 1441.9 1875.3 1437.5 1867.9C1433.2 1860.4 1435.6 1850.9 1443.1 1846.5L1512.2 1805.8V1771.2L1458.9 1802.7C1451.6 1807.1 1442 1804.7 1437.6 1797.2C1433.2 1789.8 1435.6 1780.3 1443.1 1775.9L1502.1 1740.9L1450.4 1697.6V1661.5L1425.3 1686.6L1358.9 1680.8L1376.2 1748.2C1378.3 1756.5 1373.3 1765 1365 1767.2C1356.7 1769.3 1348.1 1764.4 1346 1755.9L1330.2 1694.4L1305.7 1718.8L1326.2 1798.1C1331.4 1818.1 1301.2 1826.1 1296 1805.9L1280.1 1744.4L1232.2 1792.3C1226.1 1798.4 1216.2 1798.4 1210.1 1792.3C1204 1786.2 1204 1776.3 1210.1 1770.2L1257.4 1723L1197.5 1707.4C1189.2 1705.3 1184.2 1696.8 1186.3 1688.4C1188.5 1680.1 1197 1675 1205.3 1677.2L1283 1697.3L1307.5 1672.9L1247.5 1657.5C1239.2 1655.3 1234.1 1646.8 1236.3 1638.5C1238.4 1630.1 1246.9 1625.1 1255.3 1627.2L1321.7 1644.3L1315.8 1577.1L1341.4 1551.6H1305.8L1263 1500.5L1227.6 1560.4C1223.2 1567.9 1213.6 1570.3 1206.2 1565.9C1198.8 1561.5 1196.3 1551.9 1200.7 1544.5L1233.1 1489.8H1198.5L1156.9 1560.4C1152.6 1567.8 1143 1570.3 1135.6 1565.9C1128.1 1561.5 1125.7 1552 1130 1544.5L1162.3 1489.8H1094.5C1085.9 1489.8 1078.9 1482.8 1078.9 1474.2C1078.9 1465.6 1085.9 1458.6 1094.5 1458.6H1161.4L1130 1405.3C1125.7 1397.8 1128.1 1388.3 1135.6 1383.9C1143 1379.5 1152.6 1382 1156.9 1389.4L1197.6 1458.6H1232.2L1200.7 1405.3C1196.3 1397.9 1198.8 1388.3 1206.2 1383.9C1213.6 1379.5 1223.2 1382 1227.6 1389.4L1262.5 1448.4L1305.8 1396.8H1342L1316.8 1371.6L1322.7 1305.2L1255.3 1322.5C1247 1324.7 1238.4 1319.7 1236.3 1311.3C1234.1 1302.9 1239.2 1294.4 1247.5 1292.3L1309.1 1276.5L1284.6 1252C1200.7 1273.8 1204.6 1273.1 1201.4 1273.1C1194.5 1273.1 1188.1 1268.4 1186.3 1261.4C1184.2 1253 1189.2 1244.5 1197.5 1242.3L1259 1226.4L1211.1 1178.5C1205 1172.4 1205 1162.5 1211.1 1156.5C1217.2 1150.4 1227.1 1150.4 1233.2 1156.5L1280.5 1203.7L1296 1143.9C1298.2 1135.5 1306.7 1130.5 1315 1132.7C1323.4 1134.8 1328.4 1143.3 1326.2 1151.7L1306.1 1229.4L1330.6 1253.8L1346 1193.8C1348.1 1185.5 1356.6 1180.4 1365 1182.6C1373.3 1184.7 1378.3 1193.2 1376.2 1201.6L1359.1 1268.1L1426.3 1262.2L1451.9 1287.7V1252.2L1502.9 1209.3L1443.1 1173.9C1435.6 1169.5 1433.2 1160 1437.6 1152.5C1441.9 1145.1 1451.5 1142.7 1458.9 1147L1513.7 1179.4V1144.8L1443.1 1103.3C1435.6 1098.9 1433.2 1089.3 1437.5 1081.9C1441.9 1074.5 1451.5 1072 1458.9 1076.4L1513.7 1108.6V1040.9C1513.7 1032.3 1520.7 1025.3 1529.3 1025.3C1537.9 1025.3 1544.9 1032.3 1544.9 1040.9V1107.8L1598.2 1076.4C1605.6 1072 1615.2 1074.5 1619.6 1081.9C1623.9 1089.3 1621.5 1098.9 1614 1103.3L1544.9 1144V1178.6L1598.2 1147C1605.6 1142.7 1615.2 1145.1 1619.5 1152.5C1623.9 1160 1621.5 1169.5 1614.1 1173.9L1555 1208.8L1606.7 1252.2V1288.3L1631.8 1263.2L1698.2 1269L1680.9 1201.6C1678.8 1193.2 1683.8 1184.7 1692.2 1182.6C1700.5 1180.5 1709 1185.5 1711.1 1193.8L1727 1255.4L1751.4 1231L1730.9 1151.7C1728.7 1143.3 1733.7 1134.8 1742.1 1132.7C1750.5 1130.5 1758.9 1135.5 1761.1 1143.9L1777 1205.4L1824.9 1157.5C1831 1151.4 1840.9 1151.4 1847 1157.5C1853.1 1163.6 1853.1 1173.4 1847 1179.5L1799.7 1226.8L1859.6 1242.3C1867.9 1244.5 1873 1253 1870.8 1261.4C1868.6 1269.7 1860.1 1274.7 1851.8 1272.6L1774.1 1252.4L1749.6 1276.9L1809.6 1292.3C1818 1294.4 1823 1302.9 1820.8 1311.3C1819 1318.4 1812.7 1323 1805.7 1323C1802.5 1323 1805.4 1323.4 1735.4 1305.5L1741.3 1372.6L1715.7 1398.2H1751.3L1794.1 1449.3L1829.5 1389.4C1833.9 1382 1843.5 1379.5 1850.9 1383.9C1858.3 1388.3 1860.8 1397.9 1856.4 1405.3L1824 1460H1858.6L1900.2 1389.4C1904.5 1382 1914.1 1379.5 1921.5 1383.9C1929 1388.2 1931.4 1397.8 1927.1 1405.2L1894.9 1460H1962.6C1971.2 1460 1978.2 1467 1978.2 1475.6ZM1606.7 1332.5V1375.7L1647.7 1334.7C1653.8 1328.6 1663.7 1328.6 1669.8 1334.7C1675.9 1340.8 1675.9 1350.7 1669.8 1356.8L1628.3 1398.2H1671.6L1708.9 1360.9L1703.6 1300.8L1643.6 1295.5L1606.7 1332.5ZM1575.5 1407V1363.8L1544.9 1394.3V1436.1C1545.8 1435.4 1575.5 1407 1575.5 1407ZM1512.6 1393.8L1483.1 1363.2V1406.4L1512.6 1435.9C1512.8 1434.8 1512.6 1393.8 1512.6 1393.8ZM1460.6 1428.1H1417.3L1447.9 1458.6H1489.7C1489 1457.7 1460.6 1428.1 1460.6 1428.1ZM1447.3 1489.9L1416.8 1520.5H1460C1460 1520.5 1487.3 1490.3 1486.3 1489.9H1447.3ZM1481.6 1542.9V1586.2L1512.2 1555.6V1513.9C1511.3 1514.5 1481.6 1542.9 1481.6 1542.9ZM1543 1555.6L1574 1586.8V1543.5L1543 1512.9C1542.9 1518 1543 1555.6 1543 1555.6ZM1596.5 1521.9H1639.7L1609.2 1491.3H1567.4C1568.1 1492.3 1596.5 1521.9 1596.5 1521.9ZM1609.8 1459L1640.4 1429.5H1597.1L1567.6 1459C1568.7 1459.2 1609.8 1459 1609.8 1459ZM1483.1 1319L1513.7 1349.6V1291.6C1513.7 1283 1520.6 1276 1529.3 1276C1537.9 1276 1544.9 1283 1544.9 1291.6V1350.2L1575.4 1319.6V1266.8L1529.3 1228.1L1483.1 1266.8V1319ZM1386.1 1396.8H1429.3L1388.3 1355.8C1382.2 1349.7 1382.2 1339.8 1388.3 1333.7C1394.4 1327.7 1404.3 1327.7 1410.4 1333.7L1451.9 1375.2V1331.9L1414.5 1294.6L1354.5 1299.9L1349.2 1359.9L1386.1 1396.8ZM1372.6 1520.4L1403.1 1489.8H1345.1C1336.5 1489.8 1329.5 1482.9 1329.5 1474.2C1329.5 1465.6 1336.5 1458.6 1345.1 1458.6H1403.7L1373.2 1428.1H1320.4L1281.6 1474.2L1320.4 1520.4H1372.6ZM1450.4 1617.4V1574.1L1409.4 1615.2C1403.3 1621.2 1393.4 1621.3 1387.3 1615.2C1381.2 1609.1 1381.2 1599.2 1387.3 1593.1L1428.7 1551.6H1385.5L1348.2 1589L1353.4 1649L1413.5 1654.3L1450.4 1617.4ZM1574 1630.9L1543.4 1600.3V1658.3C1543.4 1667 1536.4 1674 1527.8 1674C1519.2 1674 1512.2 1667 1512.2 1658.3V1599.8L1481.6 1630.3V1683.1L1527.8 1721.8L1574 1683.1V1630.9ZM1671 1553.1H1627.7L1668.7 1594.1C1674.8 1600.2 1674.8 1610.1 1668.7 1616.2C1662.6 1622.3 1652.8 1622.3 1646.7 1616.2L1605.2 1574.7V1618L1642.5 1655.3L1702.6 1650L1707.9 1590L1671 1553.1ZM1775.4 1475.7L1736.7 1429.5H1684.5L1653.9 1460.1H1711.9C1720.5 1460.1 1727.5 1467.1 1727.5 1475.7C1727.5 1484.3 1720.5 1491.3 1711.9 1491.3H1653.3L1683.9 1521.9H1736.7L1775.4 1475.7Z" fill="#0199EE"/>
<path fill-rule="evenodd" clip-rule="evenodd" d="M1891.1 2478.8L1828.3 2489.9L1889.2 2529.4C1897.3 2534.7 1899.6 2545.6 1894.4 2553.7C1889.1 2561.8 1878.2 2564.2 1870.1 2558.9L1784.8 2503.5L1740.9 2561.8L1762.2 2631.6L1861.3 2608.7C1870.7 2606.6 1880.1 2612.5 1882.3 2621.9C1884.5 2631.4 1878.6 2640.8 1869.2 2643L1796.9 2659.7L1853.1 2692.1C1861.5 2697 1864.3 2707.7 1859.5 2716.1C1854.7 2724.4 1844 2727.4 1835.5 2722.5L1780.3 2690.7L1801.6 2760.1C1804.4 2769.4 1799.2 2779.2 1789.9 2782C1780.7 2784.8 1770.8 2779.7 1768 2770.4L1738.2 2673.2L1667.1 2689.6L1638.6 2756.8L1729.2 2802.9C1737.8 2807.3 1741.2 2817.9 1736.8 2826.5C1732.4 2835.1 1721.9 2838.6 1713.2 2834.2L1647.1 2800.5L1669.3 2861.5C1672.6 2870.6 1667.9 2880.7 1658.8 2884C1649.7 2887.3 1639.6 2882.7 1636.3 2873.5L1614.5 2813.6L1586.1 2880.5C1582.3 2889.4 1572 2893.6 1563.1 2889.8C1554.2 2886 1550 2875.7 1553.8 2866.8L1593.5 2773.2L1528.5 2740.1L1463.4 2773.2L1503.1 2866.8C1506.9 2875.7 1502.7 2886 1493.8 2889.8C1484.9 2893.6 1474.6 2889.4 1470.8 2880.5L1441.8 2812.1L1419.6 2873.1C1416.3 2882.3 1406.2 2887 1397.1 2883.6C1388 2880.3 1383.3 2870.2 1386.6 2861.1L1408.4 2801.2L1343.7 2834.2C1341.2 2835.5 1338.4 2836.1 1335.7 2836.1C1329.4 2836.1 1323.2 2832.6 1320.1 2826.5C1315.7 2817.9 1319.1 2807.3 1327.8 2802.9L1418.3 2756.8L1389.8 2689.6L1318.7 2673.2L1289 2770.4C1286.1 2779.7 1276.3 2784.9 1267 2782C1257.7 2779.2 1252.5 2769.4 1255.4 2760.1L1277.1 2689.1L1220.9 2721.6C1212.5 2726.4 1201.7 2723.6 1196.9 2715.1C1192 2706.7 1194.9 2696 1203.3 2691.2L1258.5 2659.3L1187.8 2643C1178.3 2640.8 1172.4 2631.4 1174.6 2621.9C1176.8 2612.5 1186.2 2606.6 1195.6 2608.7L1294.7 2631.6L1316 2561.8L1272.1 2503.5L1186.9 2558.9C1178.7 2564.2 1167.8 2561.8 1162.6 2553.7C1157.3 2545.6 1159.6 2534.7 1167.7 2529.4L1230 2489L1166.1 2477.7C1156.5 2476 1150.1 2466.9 1151.8 2457.4C1153.5 2447.8 1162.6 2441.4 1172.1 2443.1L1234.9 2454.2L1191.2 2396.2C1185.4 2388.5 1186.9 2377.5 1194.7 2371.6C1202.4 2365.8 1213.4 2367.3 1219.3 2375.1L1280.4 2456.2L1341.6 2416.5L1345.5 2343.6L1244.6 2331.2C1235 2330 1228.1 2321.2 1229.3 2311.6C1230.5 2302 1239.2 2295.1 1248.9 2296.3L1322.5 2305.4L1280.8 2255.7C1274.6 2248.2 1275.5 2237.2 1283 2230.9C1290.4 2224.7 1301.5 2225.7 1307.7 2233.1L1348.7 2281.9L1352.5 2209.4C1353 2199.7 1361.2 2192.2 1370.9 2192.8C1380.6 2193.3 1388.1 2201.6 1387.6 2211.2L1382.2 2312.7L1454.7 2321.6L1504.4 2268.3L1435.2 2193.9C1428.5 2186.8 1428.9 2175.7 1436 2169.1C1443.1 2162.5 1454.2 2162.9 1460.8 2170L1511.4 2224.3V2159.3C1511.4 2149.6 1519.3 2141.8 1529 2141.8C1538.7 2141.8 1546.6 2149.6 1546.6 2159.3V2223.1L1596.1 2170C1602.7 2162.9 1613.8 2162.5 1620.9 2169.1C1628 2175.7 1628.4 2186.8 1621.8 2193.9L1552.5 2268.3L1602.2 2321.6L1674.7 2312.7L1669.4 2211.2C1668.9 2201.6 1676.3 2193.3 1686 2192.8C1695.6 2192.2 1703.9 2199.7 1704.4 2209.4L1708.3 2283.5L1750 2233.8C1756.3 2226.4 1767.4 2225.4 1774.8 2231.6C1782.2 2237.9 1783.2 2248.9 1776.9 2256.4L1736 2305.2L1808 2296.3C1817.7 2295.1 1826.4 2302 1827.6 2311.6C1828.8 2321.2 1822 2330 1812.3 2331.2L1711.5 2343.6L1715.3 2416.5L1776.5 2456.2L1837.7 2375.1C1843.5 2367.3 1854.5 2365.8 1862.3 2371.6C1870 2377.5 1871.5 2388.5 1865.7 2396.2L1821 2455.5L1885 2444.2C1894.5 2442.5 1903.6 2448.9 1905.3 2458.5C1907 2468 1900.6 2477.1 1891.1 2478.8ZM1623.5 2490.3L1734.4 2470.8L1698.8 2447.7L1623.5 2490.3ZM1608.2 2457.4L1680 2415.1L1677.9 2374.4L1608.2 2457.4ZM1579.3 2437.2L1651.7 2350.9L1609.6 2356.1L1579.3 2437.2ZM1546.4 2421.8L1574.3 2343.3L1546.4 2313.4V2421.8ZM1482.4 2343.3L1511.3 2424.9V2312.3L1482.4 2343.3ZM1406.7 2351.1L1476.3 2434.1L1447.2 2356.1L1406.7 2351.1ZM1376.8 2415.2L1451.4 2459L1379 2372.8L1376.8 2415.2ZM1323.9 2469.9L1430.5 2488.7L1358.1 2447.7L1323.9 2469.9ZM1342.1 2538.2L1427.5 2523.8L1316.6 2504.3L1342.1 2538.2ZM1336.7 2614.1L1430.5 2560L1348.6 2575.1L1336.7 2614.1ZM1450.8 2588.8L1353.3 2645.1L1394.6 2654.6L1450.8 2588.8ZM1476.4 2614.6L1423.4 2678.8L1439.3 2716.4L1476.4 2614.6ZM1510.5 2623.7L1472 2729.5L1509.8 2710.2L1510.5 2623.7ZM1528.6 2554.7L1553.2 2586.4L1551.8 2546.3L1591 2554.7L1564.1 2524.9L1599.5 2506.2L1559.8 2500.7L1574.9 2463.5L1540.9 2484.9L1528.6 2446.7L1516.3 2484.9L1482.3 2463.5L1497.4 2500.7L1457.7 2506.2L1493.2 2524.9L1466.3 2554.7L1505.5 2546.3L1504 2586.4L1528.6 2554.7ZM1583.6 2728.7L1546.6 2626.9L1547.3 2710.2L1583.6 2728.7ZM1633.5 2678.7L1578.4 2612L1617 2717.8L1633.5 2678.7ZM1702 2645.4L1608.1 2591.2L1662.2 2654.6L1702 2645.4ZM1720.6 2615.5L1708.2 2575L1623.1 2559.2L1720.6 2615.5ZM1739.2 2505.4L1632.6 2524.3L1714.7 2538.1L1739.2 2505.4Z" fill="#0199EE"/>
<path fill-rule="evenodd" clip-rule="evenodd" d="M1897.3 543.4C1897.7 552 1890.9 559.3 1882.3 559.6L1823 561.8L1873 590.7C1880.5 595 1883 604.5 1878.7 612C1874.4 619.5 1864.8 622 1857.4 617.7L1807.4 588.8L1835.1 641.4C1839.1 649 1836.2 658.5 1828.6 662.5C1821 666.5 1811.6 663.6 1807.5 656L1757.4 561.2C1715.4 562.4 1666.4 564.4 1623.8 544.8L1673.3 628.4C1677.7 635.8 1675.2 645.3 1667.8 649.7C1660.4 654.1 1650.8 651.7 1646.4 644.3L1600 566C1593.4 611.1 1565.2 651.6 1545.2 683.8L1602.2 774.5C1606.8 781.8 1604.6 791.4 1597.3 796C1590 800.6 1580.4 798.4 1575.8 791.1L1544.2 740.8V798.6C1544.2 807.2 1537.2 814.2 1528.6 814.2C1519.9 814.2 1512.9 807.2 1512.9 798.6V740.8L1481.3 791.1C1476.8 798.4 1467.1 800.6 1459.8 796C1452.5 791.4 1450.3 781.8 1454.9 774.5L1512 683.7C1490 648.2 1464.4 607.5 1459.5 561.9L1410.7 644.3C1406.3 651.7 1396.7 654.1 1389.3 649.7C1381.9 645.3 1379.5 635.8 1383.8 628.4L1430.8 549.1C1388.6 566.6 1341 562.6 1299.7 561.2L1249.6 656C1245.6 663.6 1236.1 666.5 1228.5 662.5C1220.9 658.5 1218 649 1222 641.4L1249.7 588.8L1199.7 617.7C1192.3 622 1182.7 619.5 1178.4 612C1174.1 604.5 1176.6 595 1184.1 590.7L1234.1 561.8L1174.8 559.6C1166.2 559.3 1159.4 552 1159.8 543.4C1160.1 534.8 1167.4 528 1175.9 528.4L1283.1 532.4C1303.2 495 1327 449.4 1367.4 422.5H1282.9C1274.3 422.5 1267.3 415.5 1267.3 406.9C1267.3 398.3 1274.3 391.3 1282.9 391.3H1354.7C1320.7 362.9 1300.4 319.8 1283 287.3L1175.9 291.3C1175.7 291.3 1175.53 291.3 1175.4 291.3C1167 291.3 1160.1 284.7 1159.8 276.3C1159.4 267.7 1166.2 260.5 1174.8 260.1L1234.1 257.9L1184.1 229C1176.6 224.7 1174.1 215.2 1178.4 207.7C1182.7 200.2 1192.3 197.7 1199.7 202L1249.7 230.9L1222 178.4C1218 170.7 1220.9 161.3 1228.5 157.3C1236.1 153.2 1245.6 156.1 1249.6 163.8L1299.7 258.6C1345.1 257.1 1392.3 255.9 1433.8 275.1L1383.8 190.8C1379.5 183.4 1381.9 173.8 1389.3 169.4C1396.7 165.1 1406.3 167.5 1410.7 174.9L1457.2 253.3C1463.9 208.6 1491.6 168.6 1512 136L1454.9 45.2C1450.3 37.9 1452.5 28.3 1459.8 23.7C1467.1 19.1 1476.7 21.3 1481.3 28.6L1512.9 78.9V21.1C1512.9 12.5 1519.9 5.5 1528.6 5.5C1537.2 5.5 1544.2 12.5 1544.2 21.1V78.9L1575.8 28.6C1580.4 21.3 1590 19.1 1597.3 23.7C1604.6 28.3 1606.8 37.9 1602.2 45.2L1545.1 136C1565.8 169.5 1592.4 211 1597.6 257.3L1646.4 174.9C1650.8 167.5 1660.4 165.1 1667.8 169.4C1675.2 173.8 1677.7 183.4 1673.3 190.8L1625.9 270.8C1668.6 252.9 1717.3 257.2 1757.5 258.5L1807.5 163.8C1811.5 156.1 1821 153.2 1828.6 157.3C1836.2 161.3 1839.1 170.7 1835.1 178.4L1807.4 230.9L1857.4 202C1864.8 197.7 1874.4 200.2 1878.7 207.7C1883 215.2 1880.5 224.7 1873 229L1823 257.9L1882.3 260.1C1890.9 260.5 1897.7 267.7 1897.3 276.3C1897 284.7 1890.1 291.3 1881.8 291.3C1881.6 291.3 1881.4 291.3 1881.2 291.3L1774 287.3C1756 320.7 1734 363.5 1698 391.3H1774.2C1782.8 391.3 1789.8 398.3 1789.8 406.9C1789.8 415.5 1782.8 422.5 1774.2 422.5H1694.8C1733.5 450.5 1755.5 497.7 1774.1 532.4L1881.2 528.4C1889.9 528 1897 534.8 1897.3 543.4ZM1588.3 393.4C1613.7 392.5 1642.7 388.7 1666.6 374.9C1689.8 361.5 1707.2 339.7 1721.8 316.3L1588.3 393.4ZM1544.2 350C1557.2 325.6 1567.3 299.6 1567.3 272.8C1567.3 246.1 1557.2 220.1 1544.2 195.7V350ZM1351 289.4L1484.5 366.5C1469.9 343 1452.5 321.3 1429.3 307.9C1405.4 294.1 1376.4 290.3 1351 289.4ZM1389.1 377.5C1414.4 392.2 1445.7 394.4 1470.5 394.4L1333.7 315.5C1348.2 340.3 1365.5 363.9 1389.1 377.5ZM1468.9 426.4C1443.5 427.3 1414.5 431.1 1390.6 444.9C1367.4 458.3 1350 480.1 1335.4 503.5L1468.9 426.4ZM1486.1 452.5L1349.3 531.5C1374.1 531.4 1405.4 529.2 1430.7 514.6C1454.4 500.9 1471.6 477.4 1486.1 452.5ZM1486.8 272.9C1486.8 300.2 1498.6 326.9 1512.9 351.9V193.9C1498.6 218.9 1486.8 245.6 1486.8 272.9ZM1512.9 469.8C1500 494.3 1489.8 520.2 1489.8 547C1489.8 573.7 1500 599.7 1512.9 624.1V469.8ZM1557 409.9C1557 394.1 1544.3 381.4 1528.6 381.4C1512.8 381.4 1500.1 394.1 1500.1 409.9C1500.1 425.6 1512.8 438.4 1528.6 438.4C1544.3 438.4 1557 425.6 1557 409.9ZM1570.3 546.9C1570.3 519.6 1558.5 492.9 1544.2 467.9V625.9C1558.5 600.9 1570.3 574.2 1570.3 546.9ZM1571 367.3L1707.8 288.4C1683 288.5 1651.7 290.6 1626.4 305.2C1602.7 318.9 1585.5 342.4 1571 367.3ZM1706.2 530.4L1572.6 453.3C1587.3 476.8 1604.7 498.5 1627.9 511.9C1651.8 525.7 1680.8 529.5 1706.2 530.4ZM1723.4 504.3C1708.9 479.5 1691.7 455.9 1668.1 442.3C1642.7 427.6 1611.5 425.5 1586.6 425.4L1723.4 504.3Z" fill="#0199EE"/>
<path fill-rule="evenodd" clip-rule="evenodd" d="M2994.5 409.9C2994.5 418.5 2987.5 425.5 2978.9 425.5H2860.7L2933.2 503.2C2939.1 509.5 2938.7 519.4 2932.4 525.2C2929.4 528 2925.6 529.4 2921.8 529.4C2917.6 529.4 2913.4 527.8 2910.4 524.5C2815.3 422.5 2820.9 429.2 2819.1 425.5H2649.4L2783.7 502.7C2787.8 489.8 2787.9 475.9 2783.6 462.8C2780.9 454.7 2785.4 445.8 2793.6 443.2C2801.8 440.5 2810.6 445 2813.3 453.1C2820.3 474.6 2819.4 497.7 2811.1 518.4L2893.1 565.6C2900.6 569.9 2903.2 579.4 2898.9 586.9C2894.6 594.4 2885.1 597 2877.6 592.6L2794.9 545.1C2781.1 561.1 2762.3 572.3 2741.3 576.5C2732.8 578.2 2724.6 572.8 2722.9 564.3C2721.2 555.9 2726.7 547.6 2735.1 545.9C2747.3 543.5 2758.3 537.5 2767 529.1L2633.4 452.3L2718.5 599.7C2722.7 599.4 2714 597.8 2849.9 629.2C2858.3 631.1 2863.5 639.5 2861.6 647.9C2859.7 656.3 2851.3 661.6 2842.9 659.6L2739.3 635.7L2798.4 738C2802.7 745.5 2800.1 755 2792.7 759.4C2785.3 763.6 2775.7 761.1 2771.4 753.6L2712.3 651.3L2681.2 753C2678.7 761.2 2670 765.8 2661.7 763.3C2653.5 760.8 2648.9 752.1 2651.4 743.8C2692.2 610.5 2689.1 618.8 2691.5 615.3L2606 467.3L2606.2 623.6C2618.7 620.6 2630.3 613.9 2639.1 604.1C2644.8 597.7 2654.7 597.1 2661.1 602.9C2667.5 608.7 2668 618.5 2662.3 624.9C2647.6 641.3 2627.7 652 2606.2 655.5L2606.3 748.4C2606.3 757 2599.3 764 2590.7 764H2590.6C2582 764 2575 757 2575 748.4V655.3C2553.6 651.6 2534 640.8 2519.4 624.3C2513.7 617.8 2514.4 608 2520.8 602.3C2527.3 596.6 2537.1 597.2 2542.8 603.6C2551.4 613.4 2562.6 620.1 2574.9 623.3L2574.8 468L2489.8 615.3C2492.2 618.8 2489.1 610.5 2529.9 743.8C2532.4 752.1 2527.8 760.8 2519.6 763.3C2511.3 765.8 2502.6 761.2 2500.1 753L2469 651.3L2409.9 753.6C2405.6 761.1 2396.1 763.6 2388.6 759.4C2381.1 755 2378.6 745.5 2382.9 738L2442 635.7L2338.4 659.6C2330 661.6 2321.6 656.3 2319.7 647.9C2317.8 639.5 2323 631.1 2331.4 629.2C2467.3 597.8 2458.6 599.4 2462.8 599.7L2547.7 452.6L2409.3 532.6C2418.4 543.4 2430.9 550.9 2444.9 553.9C2453.3 555.7 2458.7 563.9 2456.9 572.4C2455.4 579.7 2448.9 584.8 2441.7 584.8C2429.8 584.8 2400.2 572.7 2381.9 548.5L2299.6 596.1C2292.2 600.4 2282.6 597.9 2278.3 590.4C2273.9 582.9 2276.5 573.4 2284 569.1L2367.4 520.8C2361 501.4 2360.9 480.1 2367.6 460.4C2370.3 452.2 2379.2 447.8 2387.4 450.6C2395.5 453.3 2399.9 462.2 2397.2 470.4C2393.4 481.5 2392.9 493.4 2395.3 504.6L2532.2 425.5H2362.2C2360.3 429.3 2366 422.5 2270.9 524.5C2265 530.8 2255.1 531.1 2248.9 525.3C2242.5 519.4 2242.2 509.5 2248.1 503.2L2320.5 425.5H2202.4C2193.8 425.5 2186.8 418.5 2186.8 409.9C2186.8 401.2 2193.8 394.3 2202.4 394.3H2320.5L2248.1 316.5C2242.2 310.2 2242.6 300.4 2248.9 294.5C2255.2 288.6 2265 289 2270.9 295.2C2366 397.2 2360.4 390.5 2362.2 394.3H2530.8L2399 319.5C2395.5 331.8 2395.5 345 2399.6 357.4C2402.9 367.5 2395.3 377.9 2384.7 377.9C2378.2 377.9 2372.1 373.7 2369.9 367.1C2363.1 346.3 2363.7 323.9 2371.3 303.7L2284.1 254.2C2276.6 249.9 2273.9 240.4 2278.2 232.9C2282.5 225.4 2292 222.8 2299.5 227L2387 276.7C2400.8 259.9 2420.2 248.1 2441.9 243.7C2450.3 242 2458.6 247.5 2460.3 255.9C2462 264.4 2456.5 272.6 2448.1 274.3C2435.3 276.9 2423.8 283.3 2414.8 292.5L2547.7 367.9L2462.3 220.1C2458.2 220.4 2467.4 222 2330.9 190.5C2322.5 188.6 2317.3 180.2 2319.2 171.8C2321.2 163.4 2329.6 158.2 2338 160.1L2441.5 184L2382.4 81.7002C2378.1 74.2002 2380.7 64.7002 2388.2 60.4002C2395.6 56.1002 2405.2 58.6002 2409.5 66.1002L2468.5 168.4L2499.6 66.8002C2502.1 58.5002 2510.8 53.9002 2519.1 56.4002C2527.4 58.9002 2532 67.7002 2529.5 75.9002C2488.8 208.9 2491.6 201.2 2489.4 204.5L2574.8 352.4L2574.5 193.7C2562 196.7 2550.4 203.4 2541.6 213.2C2535.9 219.6 2526 220.1 2519.6 214.4C2513.2 208.6 2512.6 198.7 2518.4 192.3C2533.1 175.9 2553 165.2 2574.5 161.8L2574.3 71.4002C2574.3 62.7002 2581.3 55.7002 2589.9 55.7002C2598.6 55.7002 2605.5 62.7002 2605.6 71.3002L2605.7 162C2627 165.7 2646.7 176.5 2661.2 193C2666.9 199.4 2666.3 209.3 2659.9 215C2653.4 220.7 2643.5 220.1 2637.8 213.6C2629.3 203.9 2618 197.2 2605.7 194L2606 351.8L2691 204.5C2688.8 201.2 2691.6 208.8 2650.9 75.9002C2648.4 67.7002 2653 58.9002 2661.3 56.4002C2669.5 53.9002 2678.3 58.5002 2680.8 66.8002L2711.9 168.4L2770.9 66.1002C2775.2 58.6002 2784.8 56.1002 2792.2 60.4002C2799.7 64.7002 2802.3 74.2002 2798 81.7002L2738.9 184L2842.4 160.1C2850.8 158.2 2859.2 163.4 2861.2 171.8C2863.1 180.2 2857.9 188.6 2849.5 190.5C2846.7 191.2 2722.1 220.2 2719.2 220.2C2718.8 220.2 2718.4 220.1 2718.1 220.1L2633 367.4L2769.2 288.5C2760.2 278.8 2748.4 272 2735.3 269.3C2726.9 267.5 2721.5 259.2 2723.3 250.8C2725.1 242.3 2733.4 236.9 2741.8 238.7C2763.6 243.3 2782.9 255.4 2796.7 272.5L2872.8 228.4C2880.3 224 2889.9 226.6 2894.2 234.1C2898.5 241.5 2896 251.1 2888.5 255.4L2811.9 299.8C2819.2 319.9 2819.6 342.1 2812.7 362.7C2809.9 370.9 2801 375.3 2792.9 372.6C2784.7 369.8 2780.3 361 2783.1 352.8C2787.1 340.7 2787.4 327.9 2784.2 315.8L2649 394.2H2819.1C2820.9 390.5 2815.2 397.3 2910.4 295.2C2916.2 288.9 2926.1 288.6 2932.4 294.5C2938.7 300.3 2939.1 310.2 2933.2 316.5L2860.7 394.2H2978.9C2987.5 394.2 2994.5 401.2 2994.5 409.9ZM2618 394C2609.3 378.9 2590 373.7 2574.8 382.5C2559.7 391.2 2554.5 410.5 2563.3 425.7C2572 440.8 2591.3 446 2606.5 437.2C2621.6 428.5 2626.8 409.2 2618 394Z" fill="#0199EE"/>
<path fill-rule="evenodd" clip-rule="evenodd" d="M3079.1 1480.3C3079.1 1489.4 3071.7 1496.7 3062.7 1496.7H2975.4L3016.4 1548.7C3022 1555.9 3020.8 1566.2 3013.7 1571.8C3006.6 1577.4 2996.2 1576.2 2990.6 1569.1L2939.1 1503.8L2865.3 1593.4L2855.8 1707L2938.7 1697.2C2947.6 1696.2 2955.8 1702.6 2956.9 1711.6C2958 1720.6 2951.5 1728.8 2942.5 1729.8L2873 1738L2934.4 1799.1C2940.8 1805.5 2940.9 1815.9 2934.5 1822.3C2928.1 1828.7 2917.7 1828.8 2911.2 1822.4L2850.1 1761.5L2841.9 1830.4C2840.9 1838.8 2833.8 1844.9 2825.6 1844.9C2815.8 1844.9 2808.2 1836.4 2809.3 1826.6L2819.1 1744L2703.5 1755.2L2616.4 1828.8L2682 1880.5C2689.1 1886.1 2690.3 1896.4 2684.7 1903.5C2679.1 1910.6 2668.8 1911.9 2661.6 1906.2L2604.2 1861V1941.4C2604.2 1950.4 2596.9 1957.8 2587.8 1957.8C2578.7 1957.8 2571.4 1950.4 2571.4 1941.4V1865.2L2519.4 1906.2C2512.2 1911.9 2501.9 1910.6 2496.3 1903.5C2490.7 1896.4 2491.9 1886.1 2499 1880.5L2564.1 1829.2L2473.5 1756.8L2361.1 1745.9L2370.9 1828.5C2371.9 1837.5 2365.5 1845.7 2356.5 1846.7C2347.7 1847.8 2339.4 1841.5 2338.3 1832.3L2330.1 1762.8L2269 1824.2C2262.6 1830.6 2252.2 1830.7 2245.8 1824.3C2239.4 1817.9 2239.4 1807.5 2245.7 1801.1L2306.6 1739.9L2237.7 1731.7C2228.7 1730.7 2222.2 1722.5 2223.3 1713.5C2224.4 1704.5 2232.6 1698.1 2241.5 1699.1L2323.8 1708.9L2310.9 1593.6L2239.1 1506.5L2187.7 1571.8C2182 1578.9 2171.7 1580.1 2164.6 1574.5C2157.5 1568.9 2156.3 1558.6 2161.9 1551.4L2205 1496.7H2118.6C2109.6 1496.7 2102.2 1489.4 2102.2 1480.3C2102.2 1471.2 2109.6 1463.9 2118.6 1463.9H2205L2161.9 1409.2C2156.3 1402.1 2157.5 1391.7 2164.6 1386.1C2171.7 1380.5 2182 1381.7 2187.7 1388.9L2238.9 1453.9L2311.3 1363.3L2322.2 1250.9L2239.6 1260.7C2230.9 1261.8 2222.5 1255.5 2221.4 1246.3C2220.3 1237.3 2226.8 1229.1 2235.8 1228.1L2305.3 1219.9L2243.9 1158.8C2237.5 1152.5 2237.4 1142.1 2243.8 1135.6C2250.2 1129.2 2260.6 1129.2 2267 1135.6L2328.2 1196.4L2336.4 1127.5C2337.4 1118.5 2345.6 1112.1 2354.6 1113.1C2363.6 1114.2 2370 1122.3 2369 1131.3L2359.2 1213.9L2474.8 1202.7L2561.8 1129.1L2496.3 1077.5C2489.2 1071.9 2488 1061.5 2493.6 1054.4C2499.2 1047.3 2509.5 1046.1 2516.7 1051.7L2571.4 1094.8V1008.4C2571.4 999.4 2578.7 992 2587.8 992C2596.9 992 2604.2 999.4 2604.2 1008.4V1094.8L2658.9 1051.7C2666 1046.1 2676.4 1047.3 2682 1054.4C2687.6 1061.5 2686.4 1071.9 2679.2 1077.5L2613.9 1129L2703.6 1202.8L2817.2 1212.3L2807.4 1129.4C2806.3 1120.4 2812.8 1112.3 2821.8 1111.2C2830.8 1110.1 2839 1116.6 2840 1125.6L2848.2 1195.1L2909.3 1133.7C2915.7 1127.3 2926 1127.2 2932.5 1133.6C2938.9 1140 2938.9 1150.4 2932.5 1156.9L2871.7 1218L2940.6 1226.2C2949.6 1227.2 2956 1235.4 2955 1244.4C2954 1252.7 2946.9 1258.9 2938.7 1258.9C2937.2 1258.9 2855.8 1249.2 2854.2 1249L2865.1 1361.5L2939.1 1451.4L2990.6 1386.1C2996.3 1379 3006.6 1377.8 3013.7 1383.4C3020.8 1389 3022 1399.4 3016.4 1406.5L2971.1 1463.9H3062.7C3071.7 1463.9 3079.1 1471.2 3079.1 1480.3ZM2902.4 1496.7H2850.8L2796.8 1565.3L2788 1653.6L2824.3 1689.6L2833 1585.6C2833 1585.6 2833 1585.57 2833 1585.5C2833.8 1577.2 2835.9 1577.5 2902.4 1496.7ZM2801 1712.8L2764.3 1676.2L2674.9 1686.8L2604.2 1744.8V1796.1C2690.4 1723.2 2687.4 1723.8 2695.1 1723C2695.1 1723 2692.7 1723.2 2801 1712.8ZM2490.4 1728.3L2571.4 1793V1740.7L2505.5 1688.8L2414.4 1678L2378 1714.6C2490.5 1725.5 2484.8 1723.8 2490.4 1728.3C2490.33 1728.3 2490.33 1728.3 2490.4 1728.3ZM2354.9 1691.3L2391.8 1654.1L2381.6 1568.1L2325.3 1496.7H2273.6L2339.3 1576.5C2343.9 1582 2342.4 1580.1 2354.9 1691.3ZM2273 1463.9H2325.3L2379.4 1395.3L2390.1 1304.2L2353.5 1267.9C2342.7 1379.7 2344.2 1374.6 2340.1 1379.9C2340.03 1379.9 2340 1379.93 2340 1380L2273 1463.9ZM2377.3 1245.1L2414 1281.6L2502 1271.4L2571.4 1215.2V1164C2492.5 1230.8 2491.8 1233.8 2483.6 1234.8C2483.4 1234.8 2378.4 1245 2377.3 1245.1ZM2604.2 1163.4V1215.1L2675.6 1271.4L2762.9 1281L2799.9 1243.7L2695.8 1235C2688.1 1234.7 2688.8 1233.1 2604.2 1163.4ZM2823 1267.1L2787.1 1303.2L2797.1 1393.2L2855 1463.9H2906.9C2906.9 1463.9 2839.1 1384 2837.5 1382.4C2832.3 1376.8 2834 1381 2823 1267.1ZM2734.6 1646.7L2702.9 1615.1L2648 1622L2604.2 1658.3V1702.3L2657.8 1658.3C2663.3 1653.8 2664 1655 2734.6 1646.7ZM2571.4 1698.8V1653.8L2533.2 1622.2L2475.4 1616.6L2443.8 1648.4C2516.5 1656.9 2516 1655.8 2521.3 1659.5C2523.4 1660.9 2569.4 1697.3 2571.4 1698.8ZM2421.4 1624.4L2452.9 1592.7L2446.1 1537.8L2412.1 1496.7H2367.2C2412 1553.5 2411.7 1552.2 2413.1 1556.8C2413.8 1559.2 2421.1 1621.8 2421.4 1624.4ZM2443.8 1311.2L2475.4 1342.7L2527.9 1335.8L2571.4 1301.6V1257.5C2513.6 1304.3 2517.3 1302.4 2510.5 1303.5L2443.8 1311.2ZM2604.2 1256.9V1301.8L2645.2 1335.7L2702.1 1342L2733.3 1310.7C2663.6 1303 2667.2 1303.6 2664.6 1302.9C2659.6 1301.5 2661.5 1302 2604.2 1256.9ZM2673.4 1585.7L2604.2 1517V1615.6C2641.3 1584.9 2625.9 1591.6 2673.4 1585.7ZM2571.4 1611.1V1520L2505.4 1586.5C2527.1 1588.5 2548 1589 2550.3 1593.6L2571.4 1611.1ZM2504.8 1371.9L2571.4 1438.1V1343.3C2534.2 1372.6 2549.1 1366.2 2504.8 1371.9ZM2604.2 1344.4V1440.5L2672.5 1371.8C2622.2 1366.2 2637.8 1372.2 2604.2 1344.4ZM2696.7 1394L2627.3 1463.8H2726C2695.5 1426.6 2701.6 1441.8 2696.7 1394ZM2453.3 1463.8H2550.7L2481.6 1395.1C2479.9 1413.5 2479.6 1432.8 2475.2 1435.7L2453.3 1463.8ZM2482.3 1563L2548.3 1496.6H2454.6C2482.6 1530.4 2476.5 1516.9 2482.3 1563ZM2721.4 1496.6H2630.3L2696.7 1562.7L2700.2 1526.7C2700.8 1520 2703.7 1517.9 2721.4 1496.6ZM2812.5 1463.8L2768.5 1410.2C2764.6 1404.5 2765.9 1410.7 2757.3 1333L2726.6 1363.8L2732.3 1419.8L2768.5 1463.8H2812.5ZM2367 1463.8H2411.7L2446.3 1419.3L2451.4 1365.1L2419.6 1333.5C2412 1397.7 2412.3 1407.6 2407.9 1411.9L2367 1463.8ZM2808.9 1496.6H2763.9L2732.3 1534.8L2726.8 1592.6L2757.9 1623.6C2764.4 1558.1 2763.3 1554.5 2767.9 1548.6C2768.1 1548.5 2808.8 1496.8 2808.9 1496.6Z" fill="#0199EE"/>
</svg>
